<?xml version="1.0" encoding="utf-8"?>
<!-- Generator: Adobe Illustrator 22.0.1, SVG Export Plug-In . SVG Version: 6.00 Build 0)  -->
<svg version="1.1" id="Capa_1" xmlns="http://www.w3.org/2000/svg" xmlns:xlink="http://www.w3.org/1999/xlink" x="0px" y="0px"
	 viewBox="0 0 29.5 29.5" style="enable-background:new 0 0 29.5 29.5;" xml:space="preserve">
<style type="text/css">
	.st0{fill:#FFFFFF;}
</style>
<path class="st0" d="M14.7,0C6.6,0,0,6.6,0,14.7s6.6,14.7,14.7,14.7s14.7-6.6,14.7-14.7S22.9,0,14.7,0z M24.1,9.2
	c-0.4,0.6-1.1,1.3-1.7,1.7c0,3.8-1.3,6.3-3.2,8.4c-1.8,1.9-4.7,3.3-8.4,3.2c-2.3-0.1-3.9-0.8-5.4-1.7c2.5,0.1,4.4-0.6,5.7-1.7
	C9,19,7.9,18,7.3,16.5c0.6,0.1,1.1,0.1,1.7-0.1c-1.7-0.6-2.9-1.7-3.1-3.9c0.5,0.1,1,0.4,1.7,0.4c-0.9-0.7-1.9-2-1.7-3.8
	c0.1-0.6,0.3-1,0.5-1.5c1.9,2.1,4.2,3.8,8,4c-0.4-2.4,1.2-4.6,3.5-4.8c1.5,0,2.5,0.6,3.3,1.3c0.9-0.2,1.7-0.6,2.4-0.9
	c-0.3,1-0.9,1.6-1.6,2.1c0.8-0.1,1.5-0.3,2.1-0.6C24.3,9,24.1,9.1,24.1,9.2z"/>
</svg>
