<?xml version="1.0" encoding="utf-8"?>
<!-- Generator: Adobe Illustrator 22.0.1, SVG Export Plug-In . SVG Version: 6.00 Build 0)  -->
<svg version="1.1" id="Capa_1" xmlns="http://www.w3.org/2000/svg" xmlns:xlink="http://www.w3.org/1999/xlink" x="0px" y="0px"
	 viewBox="0 0 19.2 19.2" style="enable-background:new 0 0 19.2 19.2;" xml:space="preserve">
<style type="text/css">
	.st0{fill:#FFFFFF;}
	.st1{fill:#2B3990;}
</style>
<circle class="st0" cx="9.6" cy="9.6" r="9.6"/>
<g>
	<path class="st1" d="M9.6,1c4.7,0,8.5,3.8,8.6,8.6c0,4.7-3.8,8.6-8.6,8.6C4.9,18.2,1,14.3,1,9.6C1,4.8,4.8,1,9.6,1z M8.2,9.5
		c0,1.8,0,3.5,0,5.3c0.7,0,1.5,0,2.2,0c0-1.8,0-3.5,0-5.3c0.5,0,1,0,1.5,0C11.9,8.9,12,8.3,12,7.7c-0.6,0-1.1,0-1.7,0
		c0,0,0-0.1,0-0.1c0-0.3,0-0.7,0-1c0-0.4,0.2-0.5,0.6-0.5c0.4,0,0.7,0,1.1,0c0-0.6,0-1.2,0-1.8c-0.5,0-1,0-1.5,0c-0.2,0-0.3,0-0.5,0
		C9,4.4,8.5,4.9,8.2,5.8C8.2,6,8.2,6.3,8.2,6.6c0,0.4,0,0.7,0,1.1c-0.4,0-0.7,0-1,0c0,0.6,0,1.2,0,1.9C7.5,9.5,7.8,9.5,8.2,9.5z"/>
</g>
</svg>
