<?xml version="1.0" encoding="utf-8"?>
<!-- Generator: Adobe Illustrator 22.0.1, SVG Export Plug-In . SVG Version: 6.00 Build 0)  -->
<svg version="1.1" id="Capa_1" xmlns="http://www.w3.org/2000/svg" xmlns:xlink="http://www.w3.org/1999/xlink" x="0px" y="0px"
	 viewBox="0 0 29.5 29.5" style="enable-background:new 0 0 29.5 29.5;" xml:space="preserve">
<style type="text/css">
	.st0{fill:#FFFFFF;}
</style>
<g>
	<path class="st0" d="M14.7,29.5C6.6,29.5,0,22.9,0,14.7C0,6.6,6.6,0,14.7,0c8.1,0,14.7,6.6,14.7,14.7
		C29.5,22.9,22.9,29.5,14.7,29.5z M14.7,23.6c0.9,0,1.7,0,2.6,0c0.8,0,1.6,0,2.4-0.2c2-0.4,3.3-1.7,3.7-3.7c0.2-0.8,0.2-1.7,0.2-2.5
		c0-1.7,0-3.4,0-5.1c0-0.8,0-1.6-0.2-2.4C23,7.9,21.9,6.6,20,6.1c-0.8-0.2-1.5-0.3-2.3-0.3c-2,0-3.9,0-5.9,0c-0.7,0-1.4,0-2,0.2
		C7.9,6.4,6.7,7.5,6.1,9.4c-0.2,0.8-0.3,1.6-0.3,2.4c0,2,0,4,0,6c0,0.7,0,1.3,0.2,2c0.5,2,1.7,3.2,3.6,3.7c0.8,0.2,1.6,0.2,2.5,0.2
		C13,23.6,13.9,23.6,14.7,23.6z"/>
	<path class="st0" d="M7.4,14.7c0-1.2,0-2.5,0.1-3.7c0-0.5,0.1-1,0.3-1.4c0.4-1.1,1.2-1.7,2.3-2c0.5-0.1,1-0.2,1.6-0.2
		c1.3,0,2.6,0,3.9,0c1,0,2,0,3,0.1c0.6,0,1.2,0.1,1.7,0.4c0.9,0.4,1.5,1.2,1.7,2.2c0.1,0.5,0.2,1.1,0.2,1.6c0,2.1,0,4.2,0,6.3
		c0,0.6,0,1.2-0.2,1.7c-0.4,1.3-1.2,2-2.5,2.3C18.8,22,18.4,22,17.9,22c-2.1,0-4.2,0-6.4,0c-0.6,0-1.1,0-1.7-0.2
		c-1.3-0.4-2-1.2-2.3-2.5c-0.2-0.8-0.1-1.6-0.2-2.4C7.4,16.2,7.4,15.5,7.4,14.7C7.4,14.7,7.4,14.7,7.4,14.7z M14.7,10.1
		c-2.5,0-4.6,2-4.6,4.5c0,2.5,2,4.6,4.5,4.6c2.5,0,4.6-2,4.6-4.5C19.3,12.2,17.3,10.2,14.7,10.1z M19.5,11c0.6,0,1.1-0.5,1.1-1.1
		c0-0.6-0.5-1.1-1.1-1.1c-0.6,0-1.1,0.5-1.1,1.1C18.4,10.6,18.9,11,19.5,11z"/>
	<path class="st0" d="M14.7,11.7c1.6,0,3,1.3,3,3c0,1.7-1.3,3-3,3c-1.6,0-3-1.4-3-3C11.8,13.1,13.1,11.7,14.7,11.7z"/>
</g>
</svg>
